<svg version="1.2" xmlns="http://www.w3.org/2000/svg" viewBox="0 0 1552 1081" width="1552" height="1081">
	<title>logo_color-svg</title>
	<defs>
		<linearGradient id="g1" x1="0" y1="541.1" x2="1552" y2="541.1" gradientUnits="userSpaceOnUse">
			<stop offset="0" stop-color="#ff9c40"/>
			<stop offset="1" stop-color="#d92563"/>
		</linearGradient>
	</defs>
	<style>
		.s0 { fill: url(#g1) } 
	</style>
	<path id="Layer" class="s0" d="m1552 357.9c0 62.9-49 114.4-111 118.4q-8.1-0.4-16.2-0.4-1.9 0-3.8 0c-48.6 0.6-94.5 12.2-135.4 32.3q-3.9 1.9-7.7 3.9 0 0.1 0 0.1c-22.8 58-56 110.9-97.1 156.4 26.3 46 41.4 99.4 41.4 156.4 0 17.2-1.4 34.2-4 50.7-23.7-50.7-60.4-94.1-106-125.8q-6.4-4.4-12.9-8.6c-61.1 43.9-132.3 74.8-209.4 88.4-4 73.1-32.9 139.6-78.4 191.1q5.1 4.7 10.3 9.2c21.2-7.7 44-11.9 67.8-11.9 57 0 108.2 24 144.3 62.5h-587.8c-12.7-13.8-24.7-28.3-35.9-43.5-11.5 6.8-23.4 12.9-35.7 18.2-33.5 14.5-70 23.3-108.3 25.3q-8.2 0.4-16.5 0.4c-5.5 0-10.9-0.2-16.3-0.4-21.9-1.1-43.2-4.5-63.7-9.9-30.5-7.9-59.1-20.3-85.3-36.5q0 0 0 0c-22-16.4-40.5-37.4-54-61.4-10.5-21.9-18.4-45.2-23.6-69.5-4.4-21.2-6.8-43.2-6.8-65.7 0-32.8 5-64.4 14.3-94.2 12.7-40.5 33.3-77.5 60.1-109.1q0-0.1 0-0.1c8.9-8.3 17.3-17.1 25.1-26.4q0 0 0.1-0.1c34.8-41.2 59.2-91.4 69.3-146.7 3.3-18.4 5-37.3 5-56.6 0-64.9-19.6-125.3-53.2-175.4 56.4 57 91.3 135.4 91.3 221.9v1.9c-0.2 32.1-5.2 63.1-14.4 92.3-14.7 47.2-40.4 89.7-73.9 124.5-6.4 5.4-12.4 11.2-18.1 17.3-9.1 10-17.2 20.9-24.2 32.6-17.7 29.6-27.9 64.2-27.9 101.2 0 109.3 88.6 197.9 197.9 197.9 26.1 0 51-5.1 73.8-14.3 16.9-6.8 32.6-15.8 46.8-26.8-39.8-73-62.4-156.7-62.4-245.6q0-11.3 0.5-22.4c1.1-25.5 4-50.5 8.7-74.8q0.8-4.1 1.6-8.1c5.1-24.7 12.1-48.7 20.6-71.9q5.6-15.2 12.1-30c7.2-16.2 15.1-32.1 23.9-47.4 22.4-39.1 49.8-75.1 81.3-106.9 49.3-49.7 108.7-89.4 174.9-115.8 58.8-23.4 122.9-36.3 190-36.3q20.1 0 39.9 1.5c50.7-35.5 108.2-62 170.1-77.3-4.8-26.5-13-51.9-24-75.6q-4.2-9-8.9-17.7-0.9-4-0.9-8.3c0-21.9 17.7-39.6 39.6-39.6q3 0 5.9 0.4 7.4 2.5 14.6 5.3c62.2 24.3 114.8 67.7 150.5 123.1 24 2.5 47.5 6.6 70.5 12.2 85.5 21.1 162.6 63.7 225.3 121.6q10 9.3 19.5 19.1c16.7 20.4 26.7 46.5 26.7 74.9z"/>
</svg>