<svg version="1.2" xmlns="http://www.w3.org/2000/svg" viewBox="0 0 735 511" width="735" height="511">
	<title>logo-svg</title>
	<style>
		.s0 { fill: #eeeeee } 
	</style>
	<path id="Layer" class="s0" d="m734.3 168.7c0 29.8-23.1 54.2-52.5 56.1q-3.8-0.2-7.6-0.2-1 0-1.9 0c-22.9 0.3-44.6 5.7-64 15.3q-1.8 0.8-3.6 1.8 0 0 0 0c-10.8 27.5-26.5 52.5-46 74 12.5 21.8 19.6 47.1 19.6 74 0 8.2-0.6 16.2-1.9 24-11.2-24-28.6-44.5-50.1-59.5q-3-2.1-6.2-4c-28.9 20.7-62.5 35.3-99 41.8-1.9 34.6-15.6 66-37.1 90.4q2.4 2.2 4.9 4.4c10-3.7 20.8-5.7 32.1-5.7 26.9 0 51.1 11.4 68.2 29.6h-278.1q-9.1-9.8-17-20.6-8.2 4.8-16.9 8.6c-15.9 6.9-33.1 11-51.2 12q-3.9 0.2-7.8 0.2c-2.7 0-5.2-0.1-7.7-0.2-10.4-0.5-20.5-2.1-30.2-4.7-14.4-3.7-28-9.6-40.3-17.2q-0.1 0-0.1-0.1c-10.4-7.7-19.1-17.7-25.5-29-5-10.4-8.7-21.4-11.2-32.9-2.1-10-3.2-20.4-3.2-31.1 0-15.5 2.4-30.5 6.8-44.6 6-19.1 15.7-36.6 28.4-51.6q0 0 0 0 6.3-5.9 11.9-12.5 0 0 0-0.1c16.5-19.4 28.1-43.2 32.8-69.4 1.6-8.7 2.4-17.6 2.4-26.8 0-30.7-9.3-59.2-25.2-82.9 26.7 26.9 43.2 64 43.2 104.9v0.9c-0.1 15.2-2.5 29.9-6.8 43.7-7 22.4-19.1 42.5-35 58.9q-4.5 3.9-8.5 8.2c-4.3 4.7-8.2 9.9-11.5 15.4-8.4 14-13.2 30.4-13.2 47.9 0 51.7 41.9 93.6 93.6 93.6 12.4 0 24.2-2.4 35-6.7 8-3.2 15.4-7.5 22.1-12.7-18.8-34.5-29.5-74.1-29.5-116.2q0-5.3 0.2-10.6c0.5-12.1 1.9-23.9 4.2-35.4q0.3-1.9 0.7-3.8c2.4-11.7 5.7-23.1 9.8-34q2.6-7.3 5.7-14.3 5.1-11.5 11.3-22.4c10.6-18.5 23.5-35.5 38.5-50.5 23.3-23.6 51.4-42.4 82.7-54.8 27.8-11.1 58.1-17.2 89.9-17.2q9.5 0 18.9 0.7c24-16.8 51.2-29.4 80.5-36.6-2.3-12.5-6.2-24.5-11.4-35.7q-2-4.3-4.2-8.4-0.4-1.9-0.4-4c0-10.3 8.4-18.7 18.7-18.7q1.4 0 2.8 0.2 3.5 1.2 6.9 2.5c29.5 11.5 54.4 32.1 71.3 58.2q17 1.8 33.3 5.8c40.5 10 76.9 30.1 106.6 57.6q4.7 4.3 9.2 9c7.9 9.6 12.6 22 12.6 35.4z"/>
</svg>